HIERARCHY
ROOT Hips
{
 OFFSET 0.000000 0.000000 0.000000
 CHANNELS 6 Xposition Yposition Zposition Yrotation Xrotation Zrotation
 JOINT Chest
 {
  OFFSET 0.000000 9.585900 0.002600
  CHANNELS 3 Yrotation Xrotation Zrotation
  JOINT Chest2
  {
   OFFSET 0.000000 9.601200 -0.005300
   CHANNELS 3 Yrotation Xrotation Zrotation
   JOINT Chest3
   {
    OFFSET 0.000000 9.561800 0.000000
    CHANNELS 3 Yrotation Xrotation Zrotation
    JOINT Chest4
    {
     OFFSET 0.000000 9.552100 0.000000
     CHANNELS 3 Yrotation Xrotation Zrotation
     JOINT Neck
     {
      OFFSET 0.000000 14.453000 0.000000
      CHANNELS 3 Yrotation Xrotation Zrotation
      JOINT Head
      {
       OFFSET 0.000000 8.936500 -0.011300
       CHANNELS 3 Yrotation Xrotation Zrotation
       End Site
       {
        OFFSET 0.000000 17.073600 -0.006000
       }
      }
     }
     JOINT RightCollar
     {
      OFFSET -2.921100 9.558500 0.000000
      CHANNELS 3 Yrotation Xrotation Zrotation
      JOINT RightShoulder
      {
       OFFSET -13.519700 0.000000 0.000000
       CHANNELS 3 Yrotation Xrotation Zrotation
       JOINT RightElbow
       {
        OFFSET 0.000000 -29.696600 0.000000
        CHANNELS 3 Yrotation Xrotation Zrotation
        JOINT RightWrist
        {
         OFFSET 0.000000 -24.004700 0.000000
         CHANNELS 3 Yrotation Xrotation Zrotation
         End Site
         {
          OFFSET 0.000000 -17.728500 0.000000
         }
        }
       }
      }
     }
     JOINT LeftCollar
     {
      OFFSET 2.921100 9.558500 0.000000
      CHANNELS 3 Yrotation Xrotation Zrotation
      JOINT LeftShoulder
      {
       OFFSET 13.519700 0.000000 0.000000
       CHANNELS 3 Yrotation Xrotation Zrotation
       JOINT LeftElbow
       {
        OFFSET 0.000000 -29.696600 0.000000
        CHANNELS 3 Yrotation Xrotation Zrotation
        JOINT LeftWrist
        {
         OFFSET 0.000000 -24.004700 0.000000
         CHANNELS 3 Yrotation Xrotation Zrotation
         End Site
         {
          OFFSET 0.000000 -17.728500 0.000000
         }
        }
       }
      }
     }
    }
   }
  }
 }
 JOINT RightHip
 {
  OFFSET -7.771700 -0.012900 -0.001300
  CHANNELS 3 Yrotation Xrotation Zrotation
  JOINT RightKnee
  {
   OFFSET 0.000000 -40.869800 0.001200
   CHANNELS 3 Yrotation Xrotation Zrotation
   JOINT RightAnkle
   {
    OFFSET 0.000000 -39.717900 0.002100
    CHANNELS 3 Yrotation Xrotation Zrotation
    JOINT RightToe
    {
     OFFSET 0.000000 -4.965400 11.033500
     CHANNELS 3 Yrotation Xrotation Zrotation
     End Site
     {
      OFFSET 0.000000 -1.423100 5.872300
     }
    }
   }
  }
 }
 JOINT LeftHip
 {
  OFFSET 7.771700 -0.012900 -0.001300
  CHANNELS 3 Yrotation Xrotation Zrotation
  JOINT LeftKnee
  {
   OFFSET 0.000000 -40.869800 0.001200
   CHANNELS 3 Yrotation Xrotation Zrotation
   JOINT LeftAnkle
   {
    OFFSET 0.000000 -39.717900 0.002100
    CHANNELS 3 Yrotation Xrotation Zrotation
    JOINT LeftToe
    {
     OFFSET 0.000000 -4.965400 11.033500
     CHANNELS 3 Yrotation Xrotation Zrotation
     End Site
     {
      OFFSET 0.000000 -1.423100 5.872300
     }
    }
   }
  }
 }
}
MOTION
Frames: 6
Frame Time: 0.008333
-83.172189 58.724784 87.954106 175.229444 -30.291936 -0.651254 1.757316 15.581716 1.976975 0.249306 1.720644 0.238031 0.461207 2.862741 0.408018 2.531197 14.562455 2.346089 6.147294 22.925553 0.996517 10.848660 6.891948 0.179902 -0.552355 1.123345 -0.637415 -8.812428 -11.260170 -5.387104 -104.894078 -51.077920 112.009313 12.084885 19.075826 50.844951 -4.022159 0.605336 -0.883343 27.859393 -9.877558 -6.101247 84.081520 -47.123399 -110.798915 -14.824985 6.547317 -50.560786 6.159858 -43.571848 -4.237220 -2.452137 68.552492 -2.337048 6.750894 18.338078 3.523064 -0.149665 -13.406020 2.030889 -7.684429 -42.098802 2.509656 27.480442 67.877869 26.107481 -14.008924 3.406678 -2.226647 -0.657790 -1.159910 -0.240525
-83.168334 58.719623 87.961639 175.142246 -30.330709 -0.669960 1.773409 15.645917 2.008743 0.262229 1.720723 0.241289 0.441474 2.869419 0.407042 2.508569 14.574007 2.348157 6.092632 22.981606 0.927934 10.733013 7.000247 0.090781 -0.508969 1.105259 -0.645113 -8.845369 -11.188588 -5.433958 -104.927140 -51.216499 111.982126 12.108907 19.049262 50.802526 -3.995967 0.564809 -0.887528 27.948401 -9.873706 -5.955987 84.182615 -47.064708 -110.872901 -14.790684 6.572485 -50.543836 6.138397 -43.534057 -4.140433 -2.441424 68.533906 -2.301702 6.741507 18.321918 3.498658 -0.172124 -13.372836 2.017123 -7.608503 -42.062486 2.533738 27.558463 67.859422 26.244314 -14.064624 3.350691 -2.271465 -0.612468 -1.112981 -0.228246
-83.165247 58.713350 87.967344 175.061093 -30.360228 -0.675168 1.796002 15.710620 2.030186 0.260476 1.725203 0.241557 0.438621 2.876605 0.407369 2.531845 14.554070 2.349146 5.991909 23.056848 0.881606 10.631368 7.074630 0.005713 -0.520473 1.100068 -0.636273 -8.878214 -11.130367 -5.464342 -104.948784 -51.312270 111.917222 12.108351 19.032943 50.736367 -4.030889 0.543228 -0.880530 28.047901 -9.882161 -5.844790 84.261971 -46.963275 -110.936443 -14.821498 6.587256 -50.493781 6.157193 -43.508820 -4.093704 -2.482367 68.526054 -2.283675 6.735853 18.310427 3.449987 -0.152779 -13.348163 2.006427 -7.520082 -42.035005 2.543565 27.566202 67.852109 26.299135 -14.084872 3.300045 -2.290282 -0.582224 -1.069770 -0.230770
-83.158263 58.707917 87.969221 174.976168 -30.396819 -0.686877 1.829132 15.793099 2.060665 0.259138 1.731749 0.241624 0.436429 2.887063 0.407413 2.551832 14.523035 2.350781 5.903248 23.132692 0.838559 10.544771 7.114364 -0.071935 -0.528982 1.089791 -0.628741 -8.910564 -11.088803 -5.481946 -104.941887 -51.355053 111.812903 12.081620 19.028135 50.632006 -4.061362 0.522446 -0.879011 28.151054 -9.912076 -5.770479 84.316868 -46.841834 -110.984484 -14.776283 6.535529 -50.412315 6.176322 -43.488669 -4.035417 -2.500709 68.526267 -2.237398 6.716485 18.356619 3.388226 -0.130134 -13.376921 2.003576 -7.438579 -41.998149 2.570287 27.595197 67.849944 26.372544 -14.117376 3.240128 -2.310025 -0.558789 -1.019655 -0.223258
-83.149261 58.702884 87.968515 174.886794 -30.432609 -0.695178 1.872343 15.885227 2.089135 0.258441 1.740177 0.241494 0.435106 2.900494 0.407224 2.479770 14.622635 2.337492 5.912019 23.072251 0.777849 10.474628 7.120916 -0.139338 -0.435736 0.931751 -0.629532 -8.946371 -11.058059 -5.488043 -104.911828 -51.346525 111.676720 12.029519 19.034889 50.487818 -3.992543 0.365580 -0.880407 28.246462 -9.966861 -5.727547 84.356312 -46.715299 -111.019049 -14.714394 6.506244 -50.364827 6.220642 -43.467562 -3.995348 -2.500735 68.528806 -2.158308 6.708351 18.393698 3.326912 -0.133293 -13.399801 2.006670 -7.360499 -41.960013 2.604410 27.614280 67.854189 26.431967 -14.152893 3.175905 -2.331569 -0.533521 -0.969522 -0.212169
-83.134625 58.700944 87.961593 174.781000 -30.499003 -0.716612 1.940191 16.014408 2.137632 0.258559 1.749669 0.241319 0.435135 2.915678 0.406840 2.456923 14.687140 2.326258 5.893169 23.032824 0.738363 10.421677 7.100017 -0.195261 -0.369623 0.785847 -0.621910 -8.999156 -11.031330 -5.484795 -104.862530 -51.298590 111.521198 11.955844 19.048825 50.303563 -3.967678 0.235254 -0.877096 28.315990 -10.012967 -5.711125 84.433813 -46.603725 -111.086747 -14.671557 6.497342 -50.331467 6.270188 -43.432893 -3.925694 -2.512834 68.537755 -2.078419 6.695324 18.527720 3.253493 -0.146428 -13.510231 2.020566 -7.308354 -41.890519 2.678492 27.687434 67.879050 26.529798 -14.180228 3.092056 -2.344670 -0.518282 -0.920315 -0.211593
